<svg xmlns="http://www.w3.org/2000/svg" viewBox="0 0 420 100" fill="none">
  <g transform="translate(4 4) scale(.92)">
    <path fill="#0F1A2B" d="M22 8h58v4h6v8h4v26h-4v4h6v8h4v30h-4v6H8v-6H4V58h4v-8h6v-4H10V20h4v-8h8V8Z"/><path fill="#638FD0" d="M22 12h58v4h4v28h-6v8h8v6h4v26h-4v4H14v-4h-4V58h4v-6h8v-8h-6V16h6Z"/><path fill="#91B2E6" d="M22 16h58v4h4v20h-6v4h-4V20H22Z"/><path fill="#416FAB" d="M14 54h72v4h4v26h-4v4H14v-4h-4V58h4Z"/><path fill="#86ACE1" d="M18 54h64v4h4v22h-4v4H18v-4h-4V58h4Z"/><path fill="#0F1A2B" d="M22 20h56v28H22Z"/><path fill="#C8D4E6" d="M26 22h48v22H26Z"/><path fill="#AFC0D9" d="M26 22h48v4H26Z"/><path fill="#0F1A2B" d="M48 25h6v4h-6zm-2 7h10v4h-2v10h-6V36h-2Z"/><path fill="#F7F6F2" d="M22 46h8v6h-8zm14 0h28v6H36zm34 0h8v6h-8z"/><path fill="#0F1A2B" d="M24 64h10v6h6v10h-6v6H24v-6h-6V70h6Z"/><path fill="#315784" d="M26 66h6v6h6v6h-6v6h-6v-6h-6v-6h6Z"/><path fill="#0F1A2B" d="M64 68h12v14H64Zm16 0h10v14H80Z"/><path fill="#F7F6F2" d="M67 71h6v8h-6zm16 0h4v8h-4z"/><path fill="#0F1A2B" d="M45 72h3v3h-3zm6 0h3v3h-3zm-3 5h3v3h-3z"/><path fill="#638FD0" d="M18 84h64v2H18Z"/>
  </g>
  <path stroke="#86ACE1" stroke-width="2" d="M110 18v64"/>
  <text x="132" y="62" fill="#F7F6F2" font-family="ui-monospace, Menlo, Consolas, monospace" font-size="52" font-weight="800" letter-spacing="-5">inter</text><text x="255" y="62" fill="#638FD0" font-family="ui-monospace, Menlo, Consolas, monospace" font-size="52" font-weight="800" letter-spacing="-5">n</text><text x="281" y="62" fill="#F7F6F2" font-family="ui-monospace, Menlo, Consolas, monospace" font-size="52" font-weight="800" letter-spacing="-5">dex</text>
</svg>
